<?xml version="1.0" encoding="UTF-8"?>
<svg width="10px" height="9px" viewBox="0 0 10 9" version="1.1" xmlns="http://www.w3.org/2000/svg" xmlns:xlink="http://www.w3.org/1999/xlink">
    <title>图标/下拉</title>
    <g id="页面-1" stroke="none" stroke-width="1" fill="none" fill-rule="evenodd">
        <g id="银河系统-首页B" transform="translate(-22.000000, -491.000000)">
            <g id="编组-10" transform="translate(0.000000, 70.000000)">
                <g id="编组-8" transform="translate(0.000000, 373.000000)">
                    <g id="侧导航/二级入口" transform="translate(0.000000, 28.000000)">
                        <g id="编组-12" transform="translate(20.000000, 18.000000)">
                            <rect id="矩形" x="0" y="0" width="14" height="14"></rect>
                            <path d="M7.58243521,3.67365281 L11.8744732,10.1117099 C12.08892,10.4333799 12.0019983,10.8679885 11.6803282,11.0824352 C11.5653409,11.1590934 11.4302355,11.2 11.292038,11.2 L2.70796196,11.2 C2.32136264,11.2 2.00796196,10.8865993 2.00796196,10.5 C2.00796196,10.3618025 2.04886858,10.2266971 2.12552676,10.1117099 L6.41756479,3.67365281 C6.63201152,3.35198273 7.06662006,3.26506102 7.38829014,3.47950774 C7.46518674,3.53077214 7.53117081,3.59675621 7.58243521,3.67365281 Z" id="三角形备份" fill="#FFFFFF" transform="translate(7.000000, 7.000000) rotate(-180.000000) translate(-7.000000, -7.000000) "></path>
                        </g>
                    </g>
                </g>
            </g>
        </g>
    </g>
</svg>