<?xml version="1.0" encoding="UTF-8"?>
<svg width="20px" height="20px" viewBox="0 0 20 20" version="1.1" xmlns="http://www.w3.org/2000/svg" xmlns:xlink="http://www.w3.org/1999/xlink">
    <title>图标/小/作者审核</title>
    <g id="图标/小/作者审核" stroke="none" stroke-width="1" fill="none" fill-rule="evenodd">
        <rect id="矩形" fill="#1767F9" fill-rule="nonzero" x="0" y="0" width="20" height="20" rx="3"></rect>
        <g id="编组" transform="translate(5.000000, 4.000000)" fill-rule="nonzero" stroke="#FFFFFF" stroke-linejoin="round" stroke-width="1.5">
            <path d="M4.96971819,-0.745632653 C5.81269998,-0.786788546 6.55260248,-0.521932574 7.10836504,-0.0338589334 C7.69935304,0.48724058 8.03358118,1.22625987 8.03796134,1.96060084 C8.00880437,2.72210537 7.74495275,3.41252057 7.29366859,3.96688788 C6.93895732,4.36150624 6.89637252,5.30439494 6.89052432,5.51162854 L6.89052432,5.51162854 L9.51224881,5.62315226 L10.5341478,8.75 L-0.247363039,8.75 L-0.250874694,6.25456879 L2.96112952,5.64581589 C3.09838737,5.20929595 3.04860245,4.36186297 2.74777411,4.03162798 C2.25296611,3.42430141 1.9933003,2.73759343 1.96273783,2.03694633 C1.95984356,1.24260977 2.29204423,0.501114694 2.88307617,-0.0243489248 C3.44443958,-0.523302894 4.20329952,-0.78757943 4.96971819,-0.745632653 Z" id="形状"></path>
        </g>
        <rect id="矩形" fill="#FFFFFF" x="4" y="15" width="12" height="1.5" rx="0.75"></rect>
    </g>
</svg>