<?xml version="1.0" encoding="UTF-8"?>
<svg width="22px" height="25px" viewBox="0 0 22 25" version="1.1" xmlns="http://www.w3.org/2000/svg" xmlns:xlink="http://www.w3.org/1999/xlink">
    <title>图标/权限管理</title>
    <g id="页面-1" stroke="none" stroke-width="1" fill="none" fill-rule="evenodd">
        <g id="银河系统-首页B" transform="translate(-1234.000000, -23.000000)">
            <g id="编组-10" transform="translate(1226.000000, 17.000000)">
                <circle id="椭圆形" cx="19" cy="19" r="19"></circle>
                <g id="编组-32" transform="translate(6.000000, 6.000000)">
                    <rect id="矩形" x="0" y="0" width="26" height="26"></rect>
                    <g id="编组" transform="translate(2.000000, 0.000000)" fill="#90A5D5" fill-rule="nonzero">
                        <path d="M10.3165139,0.24854041 C10.7580288,0.0879895388 11.2419712,0.0879895388 11.6834861,0.24854041 L11.6834861,0.24854041 L20.6834861,3.52126768 C21.4738645,3.808678 22,4.55984165 22,5.40085453 L22,5.40085453 L22,14 C22,17.6480498 19.69,21.1080083 16,23 L16,23 L11.7427814,24.7028875 C11.2659593,24.8936163 10.7340407,24.8936163 10.2572186,24.7028875 L10.2572186,24.7028875 L6,23 C2.2,21.1080083 0,17.7569813 0,14 L0,14 L0,5.40085453 C-1.02994373e-16,4.55984165 0.526135499,3.808678 1.31651387,3.52126768 L1.31651387,3.52126768 Z M11,5 C8.790861,5 7,6.790861 7,9 C7,10.8664601 8.27836013,12.4343432 10.0077039,12.8752635 C10.0026191,12.9161282 10,12.9577582 10,13 L10,13 L10,18 C10,18.5522847 10.4477153,19 11,19 C11.5522847,19 12,18.5522847 12,18 L12,18 L12,17 L13,17 C13.5522847,17 14,16.5522847 14,16 C14,15.4477153 13.5522847,15 13,15 L13,15 L12,15 L12,13 C12,12.9577582 11.9973809,12.9161282 11.99272,12.8758489 C13.7216399,12.4343432 15,10.8664601 15,9 C15,6.790861 13.209139,5 11,5 Z M11,7 C12.1045695,7 13,7.8954305 13,9 C13,10.1045695 12.1045695,11 11,11 C9.8954305,11 9,10.1045695 9,9 C9,7.8954305 9.8954305,7 11,7 Z" id="形状结合"></path>
                    </g>
                </g>
            </g>
        </g>
    </g>
</svg>