<?xml version="1.0" encoding="UTF-8"?>
<svg width="30px" height="26px" viewBox="0 0 30 26" version="1.1" xmlns="http://www.w3.org/2000/svg" xmlns:xlink="http://www.w3.org/1999/xlink">
    <title>形状结合</title>
    <g id="页面-1" stroke="none" stroke-width="1" fill="none" fill-rule="evenodd">
        <g id="银河系统-小屏-导航收起" transform="translate(-20.000000, -194.000000)" fill="#FFFFFF" fill-rule="nonzero">
            <g id="编组-3备份" transform="translate(0.000000, 177.000000)">
                <g id="编组-10备份" transform="translate(11.000000, 15.000000)">
                    <g id="编组-2" transform="translate(9.000000, 0.000000)">
                        <path d="M15.0376958,2 C18.360888,2 20.7079986,3.1445528 23.2623339,5.42952485 L23.6719016,5.80436993 L25.2923633,7.34019112 L26.6175402,8.57470423 C27.248132,9.17579371 27.7276995,9.67664768 28.1593815,10.2111161 C29.3308216,11.661484 30,13.2191994 30,15.0361817 C30,16.8379266 29.3317939,18.3815324 28.1669573,19.8138661 C27.7850709,20.2834501 27.3661087,20.7258415 26.8387846,21.2328595 L26.2423019,21.7917094 L25.0431487,22.8944903 L23.4161793,24.4333676 C20.8244246,26.8104045 18.4547795,28 15.0376958,28 C11.588747,28 9.21165397,26.7891916 6.58999334,24.3641824 L4.81700733,22.6810014 L3.29328073,21.2717827 L3.23713937,21.2185112 C2.52231663,20.5362061 1.98695829,19.9615682 1.5201145,19.3337611 C0.554891873,18.0357388 0,16.6295592 0,15.0361817 C0,13.2793914 0.643353638,11.7655893 1.76468882,10.3645452 C2.15667289,9.87478357 2.5879054,9.41698883 3.13725615,8.88855783 L3.62910961,8.42605865 L5.03936462,7.12568282 L6.35321791,5.88048392 L6.60806482,5.64323965 C9.25422404,3.21833213 11.6348716,2 15.0376958,2 Z M15,6.5 C12.696875,6.5 10.8219643,8.38941706 10.8219643,10.7131599 C10.8219643,12.1256491 11.5144778,13.3778007 12.5743491,14.1430122 C12.7822371,14.293032 13.0041466,14.4243121 13.2372825,14.5318989 C13.1027002,14.5523979 12.9705477,14.5810967 12.8410739,14.6177145 L12.8410739,14.6177145 L12.6981956,14.6616901 L12.5196404,14.7269779 C10.8708899,15.3845077 9.72640213,17.3832824 9.66017701,20.0758502 L9.66017701,20.0758502 L9.65714286,20.3238278 L9.65714286,20.6961453 L9.66064423,20.8283347 L9.67631826,20.9963191 C9.78567027,21.8067712 10.3557668,22.1804068 11.207378,22.3526608 L11.207378,22.3526608 L11.4754444,22.3991693 L11.5450526,22.4090216 L11.5450526,22.4090216 L11.6156621,22.4182102 L11.9077617,22.4487912 L11.9831139,22.4550087 L11.9831139,22.4550087 L12.0593618,22.4607015 L12.3729578,22.4786871 L12.6994756,22.490127 L13.2110144,22.4982531 L13.8984207,22.5 L17.0751374,22.4982908 L17.5621906,22.4906003 L17.8759193,22.47987 L18.1794112,22.4630692 L18.3269277,22.451967 L18.3269277,22.451967 L18.4714163,22.4388369 L18.7506846,22.4058123 L19.0159663,22.3626345 L19.1795783,22.3286456 C20.0345624,22.1338604 20.6029138,21.7176556 20.6534676,20.8283347 L20.6534676,20.8283347 L20.6571429,20.6961453 L20.6571429,20.3238278 L20.6545678,20.0952883 L20.6446314,19.8229495 C20.4901625,16.764184 18.9212419,14.6584145 16.8222929,14.5059677 C18.2160659,13.8217769 19.1790179,12.378489 19.1790179,10.7131599 C19.1790179,8.38941706 17.3041071,6.5 15,6.5 Z" id="形状结合"></path>
                    </g>
                </g>
            </g>
        </g>
    </g>
</svg>