<?xml version="1.0" encoding="UTF-8"?>
<svg width="20px" height="20px" viewBox="0 0 20 20" version="1.1" xmlns="http://www.w3.org/2000/svg" xmlns:xlink="http://www.w3.org/1999/xlink">
    <title>图标/小/作者线索</title>
    <g id="图标/小/作者线索" stroke="none" stroke-width="1" fill="none" fill-rule="evenodd">
        <path d="M17,0 C18.6568542,-3.04359188e-16 20,1.34314575 20,3 L20,17 C20,18.6568542 18.6568542,20 17,20 L3,20 C1.34314575,20 2.02906125e-16,18.6568542 0,17 L0,3 C-2.02906125e-16,1.34314575 1.34314575,3.04359188e-16 3,0 L17,0 Z M13.6214634,2.9482927 C12.56,2.9482927 11.6078049,3.62146342 11.2526829,4.62439025 L11.2526829,4.62439025 L11.2039024,4.75902439 L5.91414635,4.75902439 C4.27707316,4.75902439 2.94634146,6.08975611 2.94634146,7.72682928 C2.94634146,9.36195123 4.27707316,10.6946342 5.91414635,10.6907317 L5.91414635,10.6907317 L14.0663415,10.6907317 C14.9268293,10.6907317 15.6273171,11.3912195 15.6273171,12.2517073 C15.6273171,13.1121951 14.9268293,13.8126829 14.0663415,13.8126829 L14.0663415,13.8126829 L8.77463414,13.8126829 L8.72780488,13.6780488 C8.37463416,12.675122 7.42243902,12.0019512 6.35902439,12.0019512 C6.21658537,12.0019512 6.07219514,12.0156098 5.93170732,12.0390244 C4.72,12.2458537 3.84195121,13.2878049 3.84195121,14.5170732 C3.84195123,15.7443903 4.72,16.7882927 5.93170732,16.995122 C6.07219512,17.0204878 6.21658537,17.0321951 6.35902439,17.0321951 C7.42048781,17.0321951 8.37268293,16.3590244 8.72780488,15.3560976 L8.72780488,15.3560976 L8.77463414,15.2214634 L14.0663415,15.2214634 C15.7034146,15.2214634 17.0341463,13.8907317 17.0341463,12.257561 C17.0341463,10.6204878 15.7034146,9.28975611 14.0663415,9.28975611 L14.0663415,9.28975611 L5.91414635,9.28975611 C5.05365854,9.28975609 4.3531707,8.58926828 4.35317072,7.72878049 C4.35317074,6.8682927 5.05365854,6.16780488 5.91414635,6.16780488 L5.91414635,6.16780488 L11.2058537,6.16780488 L11.2526829,6.30243902 C11.6058537,7.30536588 12.5580488,7.9785366 13.6214634,7.9785366 C13.7639024,7.97853658 13.9082927,7.96487805 14.0487805,7.94146342 C15.2604878,7.73463416 16.1385366,6.69268295 16.1385366,5.46341465 C16.1385366,4.23609756 15.2604878,3.19219514 14.0487805,2.98536586 C13.9082927,2.96000002 13.7639024,2.9482927 13.6214634,2.9482927 Z M6.36682928,13.4107317 C6.97756098,13.4107317 7.47512195,13.9082927 7.47512195,14.5190244 C7.47512195,15.1297561 6.977561,15.6273171 6.36682928,15.6273171 C5.75609756,15.6273171 5.25853658,15.1297561 5.25853658,14.5190244 C5.25853658,13.9082927 5.75609758,13.4107317 6.36682928,13.4107317 Z M13.6136585,4.35317074 C14.2243902,4.35317074 14.7219512,4.85073172 14.7219512,5.46146342 C14.7219512,6.07219514 14.2243902,6.56975611 13.6136585,6.56975611 C13.0029268,6.56975611 12.5053659,6.07219512 12.5053659,5.46146342 C12.5053659,4.85073172 13.0029268,4.35317074 13.6136585,4.35317074 Z" id="形状结合" fill="#1767F9" fill-rule="nonzero"></path>
    </g>
</svg>