<?xml version="1.0" encoding="UTF-8"?>
<svg width="20px" height="20px" viewBox="0 0 20 20" version="1.1" xmlns="http://www.w3.org/2000/svg" xmlns:xlink="http://www.w3.org/1999/xlink">
    <title>图标/小/内容管理</title>
    <g id="图标/小/内容管理" stroke="none" stroke-width="1" fill="none" fill-rule="evenodd">
        <rect id="形状结合" fill="#1767F9" fill-rule="nonzero" x="0" y="0" width="20" height="20" rx="3"></rect>
        <g id="编组" transform="translate(3.000000, 3.000000)" fill-rule="nonzero" stroke="#FFFFFF" stroke-width="1.5">
            <path d="M9.09844411,14 L9.09836581,14 C8.84373892,14 8.59619065,13.8884197 8.43631084,13.7015292 C8.21848653,13.4486989 7.52835197,12.7910747 6.96339318,12.7910747 C6.40234955,12.7910747 5.70148743,13.4525465 5.50021645,13.6841653 C5.34071249,13.8677554 5.09491822,13.9774783 4.84271874,13.9774783 C4.72255439,13.9774783 4.60923376,13.9530162 4.50571671,13.904888 L4.48761297,13.8964631 L2.7704671,12.87947 L2.75339697,12.8669155 C2.44076294,12.6352304 2.32180447,12.1819104 2.47673551,11.8125907 C2.47792572,11.8097713 2.6351119,11.4256417 2.6351119,11.0754108 C2.6351119,10.0125284 1.81850174,9.1477807 0.814871823,9.1477807 L0.753983125,9.1477807 C0.750287206,9.14788021 0.746559965,9.14794655 0.74295801,9.14794655 C0.455428045,9.14794655 0.221332298,8.87747035 0.1465056,8.45892796 C0.140538884,8.42537756 0,7.63146217 0,7.00591237 C0,6.38037914 0.140538884,5.58636424 0.1465056,5.55286361 C0.222209296,5.12896443 0.461426083,4.85668052 0.753983125,4.86399428 L0.814871823,4.86399428 C1.8185174,4.86399428 2.6351119,3.99921342 2.6351119,2.93638077 C2.6351119,2.58624934 2.47800402,2.20218607 2.47634399,2.19833847 C2.3216322,1.82935049 2.44138937,1.37612997 2.75535455,1.14515798 L2.77314508,1.13207283 L4.58536689,0.0778972781 L4.604238,0.069406027 C4.70629861,0.0233011871 4.81803752,0 4.93643221,0 C5.18809923,0 5.43436332,0.10721863 5.59535504,0.28689483 C5.80985929,0.524716198 6.4878255,1.1432176 7.0365755,1.1432176 C7.58012616,1.1432176 8.25400494,0.536938956 8.46778879,0.303296875 C8.62784087,0.127285844 8.87238229,0.0219080912 9.12151228,0.0219080912 C9.24231872,0.0219080912 9.35617182,0.046071671 9.45986113,0.0938183739 L9.47821544,0.102342794 L11.2285933,1.13208942 L11.2458357,1.14494239 C11.5589865,1.37632898 11.6782895,1.82963243 11.5232802,2.19918428 C11.5220899,2.20202023 11.3648881,2.58616642 11.3648881,2.93638077 C11.3648881,3.99923001 12.1814826,4.86399428 13.1851282,4.86399428 L13.2460325,4.86399428 C13.5381824,4.85706197 13.7777281,5.12889809 13.8534944,5.55286361 C13.8594611,5.58636424 14,6.38029622 14,7.00584603 C14,7.63139583 13.8594611,8.42539415 13.8534161,8.45894454 C13.7777281,8.88282713 13.5381981,9.15413255 13.2459699,9.14779729 L13.1851595,9.14779729 C12.1814983,9.14779729 11.3649194,10.0125616 11.3649194,11.0754274 C11.3649194,11.4255588 11.5220743,11.8095226 11.5236247,11.8133536 C11.6782425,12.1820762 11.5587829,12.6353962 11.2453815,12.866617 L11.2278259,12.8796192 L9.44795902,13.9213896 L9.42940112,13.9298808 C9.3275441,13.9764335 9.21621238,14 9.09847543,14 L9.09847543,14 L9.09844411,14 Z" id="形状"></path>
        </g>
        <path d="M10,12 C11.1045695,12 12,11.1045695 12,10 C12,8.8954305 11.1045695,8 10,8 C8.8954305,8 8,8.8954305 8,10 C8,11.1045695 8.8954305,12 10,12 Z" id="椭圆形" stroke="#FFFFFF" stroke-width="1.5"></path>
    </g>
</svg>