<?xml version="1.0" encoding="UTF-8"?>
<svg width="30px" height="26px" viewBox="0 0 30 26" version="1.1" xmlns="http://www.w3.org/2000/svg" xmlns:xlink="http://www.w3.org/1999/xlink">
    <title>形状结合</title>
    <g id="页面-1" stroke="none" stroke-width="1" fill="none" fill-rule="evenodd" opacity="0.800000012">
        <g id="银河系统-小屏-导航收起" transform="translate(-21.000000, -275.000000)" fill="#FFFFFF" fill-rule="nonzero">
            <g id="编组-3备份-2" transform="translate(0.000000, 257.000000)">
                <g id="编组-10备份" transform="translate(11.000000, 15.000000)">
                    <g id="编组-2" transform="translate(9.000000, 0.000000)">
                        <g transform="translate(1.000000, 1.000000)" id="形状结合">
                            <path d="M15.0376958,2 C18.360888,2 20.7079986,3.1445528 23.2623339,5.42952485 L23.6719016,5.80436993 L25.2923633,7.34019112 L26.6175402,8.57470423 C27.248132,9.17579371 27.7276995,9.67664768 28.1593815,10.2111161 C29.3308216,11.661484 30,13.2191994 30,15.0361817 C30,16.8379266 29.3317939,18.3815324 28.1669573,19.8138661 C27.7850709,20.2834501 27.3661087,20.7258415 26.8387846,21.2328595 L26.2423019,21.7917094 L25.0431487,22.8944903 L23.4161793,24.4333676 C20.8244246,26.8104045 18.4547795,28 15.0376958,28 C11.588747,28 9.21165397,26.7891916 6.58999334,24.3641824 L4.81700733,22.6810014 L3.29328073,21.2717827 L3.23713937,21.2185112 C2.52231663,20.5362061 1.98695829,19.9615682 1.5201145,19.3337611 C0.554891873,18.0357388 0,16.6295592 0,15.0361817 C0,13.2793914 0.643353638,11.7655893 1.76468882,10.3645452 C2.15667289,9.87478357 2.5879054,9.41698883 3.13725615,8.88855783 L3.62910961,8.42605865 L5.03936462,7.12568282 L6.35321791,5.88048392 L6.60806482,5.64323965 C9.25422404,3.21833213 11.6348716,2 15.0376958,2 Z M15.5277674,8.04538528 C15.0586628,7.75390741 14.4420889,7.89790231 14.150611,8.36700688 L14.150611,8.36700688 L12.3206352,11.3121707 L8.9541243,12.1424755 C8.80496726,12.1792631 8.66629152,12.2499219 8.54885743,12.3489693 C8.12668423,12.7050426 8.0730997,13.3359361 8.42917305,13.7581093 L8.42917305,13.7581093 L10.6646966,16.4086255 L10.4140544,19.8669458 C10.4029494,20.0201706 10.4272967,20.1738939 10.4852073,20.3161876 C10.6933944,20.8277309 11.2768513,21.0736496 11.7883946,20.8654625 L11.7883946,20.8654625 L15,19.5584077 L18.2116054,20.8654625 C18.3538992,20.923373 18.5076224,20.9477204 18.6608472,20.9366154 C19.2116872,20.8966932 19.6258678,20.4177858 19.5859456,19.8669458 L19.5859456,19.8669458 L19.3353034,16.4086255 L21.570827,13.7581093 C21.6698743,13.6406752 21.7405331,13.5019995 21.7773207,13.3528424 C21.9095714,12.8166259 21.5820923,12.2747261 21.0458757,12.1424755 L21.0458757,12.1424755 L17.6793648,11.3121707 L15.849389,8.36700688 C15.7683098,8.2365181 15.6582561,8.12646441 15.5277674,8.04538528 Z"></path>
                        </g>
                    </g>
                </g>
            </g>
        </g>
    </g>
</svg>