<?xml version="1.0" encoding="UTF-8"?>
<svg width="20px" height="20px" viewBox="0 0 20 20" version="1.1" xmlns="http://www.w3.org/2000/svg" xmlns:xlink="http://www.w3.org/1999/xlink">
    <title>图标/小/内容聚合</title>
    <g id="图标/小/内容聚合" stroke="none" stroke-width="1" fill="none" fill-rule="evenodd">
        <rect id="形状结合" fill="#1767F9" fill-rule="nonzero" x="0" y="0" width="20" height="20" rx="3"></rect>
        <g id="编组" transform="translate(3.000000, 4.000000)" stroke="#FFFFFF" stroke-width="1.5">
            <path d="M7,12 C9.76142375,12 12,9.76142375 12,7 C12,4.23857625 9.76142375,2 7,2 C4.23857625,2 2,4.23857625 2,7 C2,9.76142375 4.23857625,12 7,12 Z" id="椭圆形备份-3"></path>
            <path d="M7,4 C8.1045695,4 9,3.1045695 9,2 C9,0.8954305 8.1045695,0 7,0 C5.8954305,0 5,0.8954305 5,2 C5,3.1045695 5.8954305,4 7,4 Z" id="椭圆形" fill="#1767F9"></path>
            <path d="M11.5,11 C12.6045695,11 13.5,10.1045695 13.5,9 C13.5,7.8954305 12.6045695,7 11.5,7 C10.3954305,7 9.5,7.8954305 9.5,9 C9.5,10.1045695 10.3954305,11 11.5,11 Z" id="椭圆形备份-2" fill="#1767F9"></path>
            <path d="M2.5,11 C3.6045695,11 4.5,10.1045695 4.5,9 C4.5,7.8954305 3.6045695,7 2.5,7 C1.3954305,7 0.5,7.8954305 0.5,9 C0.5,10.1045695 1.3954305,11 2.5,11 Z" id="椭圆形备份-4" fill="#1767F9"></path>
        </g>
    </g>
</svg>