<?xml version="1.0" encoding="UTF-8"?>
<svg width="20px" height="25px" viewBox="0 0 20 25" version="1.1" xmlns="http://www.w3.org/2000/svg" xmlns:xlink="http://www.w3.org/1999/xlink">
    <title>图标/帮助文档</title>
    <g id="页面-1" stroke="none" stroke-width="1" fill="none" fill-rule="evenodd">
        <g id="银河系统-首页B" transform="translate(-1177.000000, -23.000000)">
            <g id="编组-31" transform="translate(1168.000000, 17.000000)">
                <circle id="椭圆形" cx="19" cy="19" r="19"></circle>
                <g id="编组-32" transform="translate(6.000000, 6.000000)">
                    <rect id="矩形" x="0" y="0" width="26" height="26"></rect>
                    <path d="M21,0.5 C22.1045695,0.5 23,1.3954305 23,2.5 L23,22.5 C23,23.6045695 22.1045695,24.5 21,24.5 L5,24.5 C3.8954305,24.5 3,23.6045695 3,22.5 L3,2.5 C3,1.3954305 3.8954305,0.5 5,0.5 L21,0.5 Z M18.5,18.5 L7.5,18.5 C6.67157288,18.5 6,19.1715729 6,20 C6,20.8284271 6.67157288,21.5 7.5,21.5 L7.5,21.5 L18.5,21.5 C19.3284271,21.5 20,20.8284271 20,20 C20,19.1715729 19.3284271,18.5 18.5,18.5 L18.5,18.5 Z M10,3.5 L7,3.5 C6.44771525,3.5 6,3.94771525 6,4.5 L6,4.5 L6,8.550883 C6,8.65182286 6.03055122,8.75039915 6.08763557,8.83364717 C6.24380192,9.06138976 6.55502159,9.11941376 6.78276418,8.96324742 L6.78276418,8.96324742 L7.93447164,8.17350516 C8.27527665,7.93981029 8.72472335,7.93981029 9.06552836,8.17350516 L9.06552836,8.17350516 L10.2172358,8.96324742 C10.3004838,9.02033178 10.3990601,9.050883 10.5,9.050883 C10.7761424,9.050883 11,8.82702537 11,8.550883 L11,8.550883 L11,4.5 C11,3.94771525 10.5522847,3.5 10,3.5 L10,3.5 Z" id="形状结合" fill="#90A5D5"></path>
                </g>
            </g>
        </g>
    </g>
</svg>