<?xml version="1.0" encoding="UTF-8"?>
<svg width="25px" height="23px" viewBox="0 0 25 23" version="1.1" xmlns="http://www.w3.org/2000/svg" xmlns:xlink="http://www.w3.org/1999/xlink">
    <title>图标/值班群</title>
    <g id="页面-1" stroke="none" stroke-width="1" fill="none" fill-rule="evenodd">
        <g id="银河系统-首页B" transform="translate(-1116.000000, -24.000000)">
            <g id="编组-10" transform="translate(1110.000000, 17.000000)">
                <circle id="椭圆形" cx="19" cy="19" r="19"></circle>
                <g id="编组-16" transform="translate(6.000000, 6.000000)">
                    <rect id="矩形" x="0" y="0" width="26" height="26"></rect>
                    <path d="M10.4278663,1 C13.7363632,1 16.4285714,3.69009736 16.4285714,6.99857516 C16.4285714,8.70791905 15.7099319,10.2529574 14.5589482,11.3471885 C12.4125318,12.7806398 11,15.2253627 11,18 C11,20.2722085 11.9472883,22.3231661 13.4684823,23.7794899 C13.4776125,23.7882307 13.4954056,23.8048034 13.5218617,23.8292078 C13.5613429,23.8655839 13.5638235,23.9270798 13.527424,23.9665393 C13.509031,23.9864785 13.4831427,23.9978247 13.4560158,23.9978357 C13.4560158,23.9978357 13.4560158,23.9978357 13.4560158,23.9978357 C12.2746757,23.9983167 10.5026657,23.9990381 8.13998564,24 L6.89015607,23.9973816 L5.96008557,23.9852016 L5.36641682,23.9680546 L4.79624215,23.9410964 L4.52060566,23.9232444 L3.9895155,23.8774074 L3.7345743,23.8488673 L3.24718079,23.7791569 C1.66738027,23.5157312 0.620405889,22.9380864 0.452370939,21.6714164 L0.434937559,21.4943826 L0.428571429,21.2962472 L0.428571429,20.7381898 L0.434088074,20.3665024 C0.555679963,16.2910424 2.67644791,13.2760185 5.72170263,12.3207556 L5.95775832,12.2513533 L6.217537,12.1854394 C6.52566109,12.1135996 6.84212927,12.0620953 7.16592699,12.0318699 L6.94484318,11.8818997 C5.42296041,10.7924137 4.42857143,9.00963654 4.42857143,6.99857516 C4.42857143,3.69009736 7.12077968,1 10.4278663,1 Z M19,12 C22.3137085,12 25,14.6862915 25,18 C25,21.3137085 22.3137085,24 19,24 C15.6862915,24 13,21.3137085 13,18 C13,14.6862915 15.6862915,12 19,12 Z M19,13.5 C18.4871642,13.5 18.0644928,13.8860402 18.0067277,14.3833789 L18,14.5 L18,17 L16,17 C15.4477153,17 15,17.4477153 15,18 C15,18.5128358 15.3860402,18.9355072 15.8833789,18.9932723 L16,19 L19,19 C19.5128358,19 19.9355072,18.6139598 19.9932723,18.1166211 L20,18 L20,14.5 C20,13.9477153 19.5522847,13.5 19,13.5 Z" id="形状" fill="#90A5D5" fill-rule="nonzero"></path>
                </g>
            </g>
        </g>
    </g>
</svg>