<?xml version="1.0" encoding="UTF-8"?>
<svg width="20px" height="20px" viewBox="0 0 20 20" version="1.1" xmlns="http://www.w3.org/2000/svg" xmlns:xlink="http://www.w3.org/1999/xlink">
    <title>图标/小/帮助指引</title>
    <g id="图标/小/帮助指引" stroke="none" stroke-width="1" fill="none" fill-rule="evenodd">
        <rect id="形状结合" fill="#1767F9" fill-rule="nonzero" x="0" y="0" width="20" height="20" rx="3"></rect>
        <circle id="椭圆形" stroke="#FFFFFF" stroke-width="1.5" cx="10" cy="10" r="7"></circle>
        <path d="M10.0062389,12.906459 C10.2762059,12.9106704 10.5334609,13.0233944 10.7213942,13.219826 C10.9093275,13.4162575 11.0125397,13.6803007 11.0083185,13.9538521 C11.0083185,14.5372422 10.5686144,15 10.0062389,15 C9.45965605,15 9.00415927,14.5372422 9.00415927,13.9538521 C9.00415927,13.3840077 9.45965605,12.9077042 10.0062389,12.9077042 L10.0062389,12.9077042 Z M10.0669685,5 C10.6439244,5 11.1601508,5.10708667 11.6010672,5.33845714 C12.020045,5.547726 12.3764177,5.86635004 12.6335033,6.26153277 L12.6335033,6.26153277 C12.8764382,6.64554044 12.9978974,7.07631019 12.9978974,7.52308236 C13.0124778,7.8615395 12.9517316,8.18399421 12.799916,8.44615799 C12.6638764,8.72185063 12.4962514,8.95323792 12.3140461,9.13784632 C12.1172769,9.33845714 11.7832559,9.66092868 11.2974026,10.1224581 C11.1601508,10.2455472 11.0544677,10.3686194 10.9633816,10.460932 C10.8923755,10.5458538 10.8312391,10.6387651 10.7811763,10.7378362 C10.7376586,10.8142625 10.706878,10.897438 10.6900736,10.9840144 C10.6742975,11.0603078 10.6293606,11.2153849 10.5831949,11.4147842 C10.5078849,11.8455539 10.2649499,12.0769423 9.87019932,12.0769423 C9.67190399,12.0782935 9.48095128,12.0009874 9.33818028,11.8615395 C9.2021407,11.7224648 9.12561843,11.5070799 9.12561843,11.2301589 C9.11649925,10.9153894 9.16807337,10.6018407 9.27745069,10.3070833 C9.38434605,10.0461479 9.52038563,9.81476059 9.68801057,9.63016903 C9.85440664,9.42954138 10.0973416,9.19939928 10.3852134,8.9372355 C10.6439244,8.70707657 10.8261132,8.52246818 10.947589,8.39937909 C11.06533,8.28335159 11.1630452,8.14814734 11.2366731,7.99938582 C11.314135,7.85228993 11.3557783,7.68856423 11.3581322,7.52185399 C11.3638057,7.19971741 11.2307805,6.89104072 10.9937381,6.67630009 C10.7508198,6.44615799 10.4471553,6.3230689 10.0669685,6.3230689 C9.62726438,6.3230689 9.30782379,6.44615799 9.09526195,6.67631692 C8.8827001,6.90645902 8.71628743,7.24491616 8.56445517,7.70646239 C8.42720332,8.18399421 8.16970458,8.41415314 7.78951779,8.41415314 C7.56239214,8.41415314 7.38018678,8.33784295 7.22835452,8.16799179 C7.07652226,7.99938582 7,7.81476059 7,7.6301522 C7,7.23015893 7.12147577,6.83014883 7.3643941,6.41415314 C7.62472637,5.9874784 7.99126518,5.63771765 8.42720332,5.39999327 C8.89849278,5.12307226 9.44386337,5 10.0669685,5 Z" id="形状结合" fill="#FFFFFF" fill-rule="nonzero"></path>
    </g>
</svg>