<?xml version="1.0" encoding="UTF-8"?>
<svg width="22px" height="22px" viewBox="0 0 22 22" version="1.1" xmlns="http://www.w3.org/2000/svg" xmlns:xlink="http://www.w3.org/1999/xlink">
    <title>形状结合</title>
    <g id="页面-1" stroke="none" stroke-width="1" fill="none" fill-rule="evenodd">
        <g id="银河系统-首页B" transform="translate(-24.000000, -114.000000)" fill="#FFFFFF" fill-rule="nonzero">
            <g id="编组-10" transform="translate(0.000000, 70.000000)">
                <g id="编组-40" transform="translate(0.000000, 25.000000)">
                    <g id="编组-6" transform="translate(10.000000, 5.000000)">
                        <g id="编组-23" transform="translate(11.000000, 11.000000)">
                            <g id="首页-选中" transform="translate(3.000000, 3.000000)">
                                <path d="M9.8742438,0.457517643 C10.5468825,-0.152505881 11.5727804,-0.152505881 12.2454192,0.45806794 L12.2454192,0.45806794 L21.7081041,9.55998269 C21.8822861,9.71715078 21.986872,9.93707096 21.9988463,10.1713468 C22.0108206,10.4056226 21.929202,10.635056 21.7719519,10.8091572 C21.4450072,11.1734539 20.8874397,11.2004185 20.4944454,10.8449265 L20.4944454,10.8449265 L20.4944454,20.2291437 C20.49503,20.6986968 20.3088336,21.1492103 19.9768947,21.4813896 C19.6449558,21.8135688 19.1945221,22 18.7248705,22 L18.7248705,22 L3.3920404,22 C2.92248421,22 2.47219193,21.8133582 2.14037212,21.4811949 C1.80855231,21.1490315 1.62243149,20.6986014 1.62301588,20.2291437 L1.62301588,20.2291437 L1.62301588,10.7288138 L1.47055172,10.873542 C1.1070979,11.1949709 0.55248936,11.1636345 0.227571996,10.8033111 C-0.0973453689,10.4429878 -0.0712462739,9.8882237 0.286064867,9.55998269 L0.286064867,9.55998269 Z M13,13 L9,13 C8.44771525,13 8,13.4477153 8,14 L8,14 L8,18 C8,18.5522847 8.44771525,19 9,19 L9,19 L13,19 C13.5522847,19 14,18.5522847 14,18 L14,18 L14,14 C14,13.4477153 13.5522847,13 13,13 L13,13 Z" id="形状结合"></path>
                            </g>
                        </g>
                    </g>
                </g>
            </g>
        </g>
    </g>
</svg>