<?xml version="1.0" encoding="UTF-8"?>
<svg width="20px" height="20px" viewBox="0 0 20 20" version="1.1" xmlns="http://www.w3.org/2000/svg" xmlns:xlink="http://www.w3.org/1999/xlink">
    <title>图标/小/看点动态</title>
    <g id="图标/小/看点动态" stroke="none" stroke-width="1" fill="none" fill-rule="evenodd">
        <rect id="矩形" fill="#1767F9" fill-rule="nonzero" x="0" y="0" width="20" height="20" rx="3"></rect>
        <path d="M10.0173981,5.25 C11.6030479,5.25 12.5130649,6.02212492 13.5327783,6.96989398 C15.2339804,8.50614674 15.75,9.17410027 15.75,10.0161932 C15.75,10.890652 15.1465552,11.5887725 14.152336,12.4694485 C12.4064735,14.0723522 11.5513638,14.75 10.0173981,14.75 C8.42507988,14.75 7.54248667,13.9962774 6.54086425,13.0614531 C4.78973076,11.4908674 4.25,10.8124127 4.25,10.0161932 C4.25,9.15573781 4.84420721,8.46434416 5.82445342,7.59573768 C7.60978553,5.95745477 8.5004562,5.25 10.0173981,5.25 Z" id="Fill-1备份" stroke="#FFFFFF" stroke-width="1.5" stroke-linejoin="round" fill-rule="nonzero"></path>
        <path d="M3.87562407,7.00704686 C2.78749219,8.06747641 2,8.91029853 2,10.0283381 C2,11.0948574 2.78825224,11.940535 3.8770218,13.0042139 M16.1911668,13.0053451 C17.2432387,11.9761209 18,11.1370391 18,10.0283381 C18,8.89979676 17.2456431,8.05003536 16.1938438,7.00862126" id="形状" stroke="#FFFFFF" stroke-width="1.5" stroke-linecap="round" stroke-linejoin="round" fill-rule="nonzero"></path>
        <circle id="椭圆形" fill="#FFFFFF" cx="10" cy="10" r="2"></circle>
    </g>
</svg>