<?xml version="1.0" encoding="UTF-8"?>
<svg width="20px" height="20px" viewBox="0 0 20 20" version="1.1" xmlns="http://www.w3.org/2000/svg" xmlns:xlink="http://www.w3.org/1999/xlink">
    <title>图标/小/消息通知</title>
    <g id="图标/小/消息通知" stroke="none" stroke-width="1" fill="none" fill-rule="evenodd">
        <rect id="形状结合" fill="#1767F9" fill-rule="nonzero" x="0" y="0" width="20" height="20" rx="3"></rect>
        <path d="M10,3 C10.7347427,3 11.3461016,3.48424655 11.4749788,4.12356662 C13.5389186,4.71674819 15.0402917,6.5241956 15.0402917,8.66176471 L14.8663074,9.48072386 C14.5984219,10.7416846 14.9450976,12.0498257 15.7904502,13.0105991 L15.9547694,13.1865771 C16.0840004,13.4907281 15.9268567,13.8359165 15.603779,13.9575769 C15.5293577,13.9856015 15.4499397,14 15.3697855,14 L4.63004694,14 C4.28208162,14 4,13.7344434 4,13.4068627 C4,13.3314042 4.01529451,13.2566386 4.04506304,13.1865771 C5.00899971,12.2135276 5.41815335,10.8204947 5.13352497,9.48072386 L4.95954072,8.66176471 C4.95954072,6.5241956 6.46091379,4.71674819 8.52506701,4.12303036 C8.65389841,3.48424655 9.26525729,3 10,3 Z" id="形状结合" stroke="#FFFFFF" stroke-width="1.5" fill-rule="nonzero"></path>
        <path d="M12,15.5 C12,16.6045695 11.1045695,17.5 10,17.5 C8.8954305,17.5 8,16.6045695 8,15.5 L8,15.5 Z" id="形状结合" fill="#FFFFFF"></path>
    </g>
</svg>