<?xml version="1.0" encoding="UTF-8"?>
<svg width="24px" height="24px" viewBox="0 0 24 24" version="1.1" xmlns="http://www.w3.org/2000/svg" xmlns:xlink="http://www.w3.org/1999/xlink">
    <g stroke="none" stroke-width="1" fill="none" fill-rule="evenodd">
        <g transform="translate(-24.000000, -354.000000)">
            <g>
                <g transform="translate(0.000000, 337.000000)">
                    <g transform="translate(20.000000, 15.000000)">
                        <g>
                            <rect x="0" y="0" width="30" height="30"></rect>
                            <path d="M6,4 L12,4 C13.1045695,4 14,4.8954305 14,6 L14,12 C14,13.1045695 13.1045695,14 12,14 L6,14 C4.8954305,14 4,13.1045695 4,12 L4,6 C4,4.8954305 4.8954305,4 6,4 Z M6,16 L12,16 C13.1045695,16 14,16.8954305 14,18 L14,24 C14,25.1045695 13.1045695,26 12,26 L6,26 C4.8954305,26 4,25.1045695 4,24 L4,18 C4,16.8954305 4.8954305,16 6,16 Z M22.4142136,3.34314575 L26.6568542,7.58578644 C27.4379028,8.36683502 27.4379028,9.63316498 26.6568542,10.4142136 L22.4142136,14.6568542 C21.633165,15.4379028 20.366835,15.4379028 19.5857864,14.6568542 L15.3431458,10.4142136 C14.5620972,9.63316498 14.5620972,8.36683502 15.3431458,7.58578644 L19.5857864,3.34314575 C20.366835,2.56209717 21.633165,2.56209717 22.4142136,3.34314575 Z M18,16 L24,16 C25.1045695,16 26,16.8954305 26,18 L26,24 C26,25.1045695 25.1045695,26 24,26 L18,26 C16.8954305,26 16,25.1045695 16,24 L16,18 C16,16.8954305 16.8954305,16 18,16 Z" fill="#FFFFFF" opacity="0.800000012"></path>
                        </g>
                    </g>
                </g>
            </g>
        </g>
    </g>
</svg>