<?xml version="1.0" encoding="UTF-8"?>
<svg width="18px" height="22px" viewBox="0 0 18 22" version="1.1" xmlns="http://www.w3.org/2000/svg" xmlns:xlink="http://www.w3.org/1999/xlink">
    <title>图标/系统通知</title>
    <g id="页面-1" stroke="none" stroke-width="1" fill="none" fill-rule="evenodd">
        <g id="银河系统-首页B" transform="translate(-1294.000000, -25.000000)">
            <g id="编组-33" transform="translate(1284.000000, 17.000000)">
                <circle id="椭圆形" cx="19" cy="19" r="19"></circle>
                <g id="编组-29" transform="translate(6.000000, 6.000000)">
                    <rect id="矩形" x="0" y="0" width="26" height="26"></rect>
                    <g id="编组-28" transform="translate(4.157245, 2.714286)" fill="#90A5D5">
                        <path d="M9,0 C10.1045695,0 11,0.8954305 11,2 C11,2.10603305 10.9917486,2.21013889 10.9758529,2.31171041 C14.0389134,3.2274605 16.2713265,6.06731196 16.2713265,9.42857143 L15.9973096,10.7986559 C15.6042605,12.7639018 16.1394841,14.7951696 17.4373959,16.3090969 L17.6190957,16.5122801 C17.8095582,16.9884362 17.5779577,17.5288373 17.1018016,17.7192998 C16.9921184,17.763173 16.8750711,17.7857143 16.7569388,17.7857143 L12.494888,17.7860965 C12.0561671,19.391455 10.5872599,20.5714286 8.84275511,20.5714286 C7.09825031,20.5714286 5.62934311,19.391455 5.19062223,17.7860965 L0.928571429,17.7857143 C0.415735589,17.7857143 1.0125234e-12,17.3699787 1.0125234e-12,16.8571429 C1.0125234e-12,16.7390105 0.0225412562,16.6219632 0.0664145013,16.5122801 C1.49545149,14.9799667 2.09911563,12.8532312 1.68820057,10.7986559 L1.41418368,9.42857143 C1.41418368,5.95687435 3.79570311,3.04141094 7.01418357,2.2267396 C7.00435489,2.15304486 7,2.077031 7,2 C7,0.8954305 7.8954305,0 9,0 Z M10.3224361,17.7856933 L7.36336527,17.7861232 C7.68444415,18.2600032 8.22723099,18.5714286 8.84275511,18.5714286 C9.45846531,18.5714286 10.0013942,18.2598149 10.3224361,17.7856933 Z" id="形状结合"></path>
                    </g>
                </g>
            </g>
        </g>
    </g>
</svg>