<?xml version="1.0" encoding="UTF-8"?>
<svg width="18px" height="18px" viewBox="0 0 18 18" version="1.1" xmlns="http://www.w3.org/2000/svg" xmlns:xlink="http://www.w3.org/1999/xlink">
    <title>形状结合</title>
    <g id="页面-1" stroke="none" stroke-width="1" fill="none" fill-rule="evenodd">
        <g id="银河系统-首页B" transform="translate(-1268.000000, -266.000000)" fill="#1767F9" fill-rule="nonzero">
            <g id="编组-14" transform="translate(1248.000000, 257.000000)">
                <g id="编组" transform="translate(29.000000, 18.000000) scale(-1, 1) translate(-29.000000, -18.000000) translate(20.000000, 9.000000)">
                    <path d="M8.70634191,0.00886291131 C13.546678,0.00886291131 17.4038209,3.86600577 17.4038209,8.70634191 C17.4038209,13.546678 13.546678,17.4038209 8.70634191,17.4038209 L1.52146797,17.4038209 C0.689535207,17.4038209 0.00886291131,16.7231486 0.00886291131,15.8912159 L0.00886291131,8.70634191 C0.00886291131,3.86600577 3.86600577,0.00886291131 8.70634191,0.00886291131 Z M8.47058824,10.5294118 L5.29411765,10.5294118 C4.70934556,10.5294118 4.23529412,11.0034632 4.23529412,11.5882353 C4.23529412,12.1730074 4.70934556,12.6470588 5.29411765,12.6470588 L5.29411765,12.6470588 L8.47058824,12.6470588 C9.05536032,12.6470588 9.52941176,12.1730074 9.52941176,11.5882353 C9.52941176,11.0034632 9.05536032,10.5294118 8.47058824,10.5294118 L8.47058824,10.5294118 Z M11.6470588,6.35294118 L5.29411765,6.35294118 C4.70934556,6.35294118 4.23529412,6.82699262 4.23529412,7.41176471 C4.23529412,7.99653679 4.70934556,8.47058824 5.29411765,8.47058824 L5.29411765,8.47058824 L11.6470588,8.47058824 C12.2318309,8.47058824 12.7058824,7.99653679 12.7058824,7.41176471 C12.7058824,6.82699262 12.2318309,6.35294118 11.6470588,6.35294118 L11.6470588,6.35294118 Z" id="形状结合"></path>
                </g>
            </g>
        </g>
    </g>
</svg>