<?xml version="1.0" encoding="UTF-8"?>
<svg width="24px" height="24px" viewBox="0 0 24 24" version="1.1" xmlns="http://www.w3.org/2000/svg" xmlns:xlink="http://www.w3.org/1999/xlink">
    <title>upload</title>
    <g id="upload" stroke="none" stroke-width="1" fill="none" fill-rule="evenodd">
        <path d="M20.4411703,5.76383214 L11.5666059,5.76383214 L10.5387313,4.60355339 C10.2727356,4.31698608 10.0577087,4.02855748 9.63280796,4.02855748 L3.00214594,4.02855748 C2.45370987,4.02855748 2.00911458,4.47323578 2.00911458,5.02167186 L2.00911458,18.1680133 C2.00911458,19.0243433 2.70330722,19.718536 3.55963723,19.718536 L20.4585919,19.718536 C21.3149219,19.718536 22.0091146,19.0243433 22.0091146,18.1680133 L22.0091146,7.31435479 C22.0091146,6.90009425 21.8433932,6.50304941 21.5488349,6.21176398 C21.2542766,5.92047855 20.8554047,5.75917752 20.4411703,5.76383214 Z M12.9028428,15.7986753 L11.0805432,15.7986753 C10.8044008,15.7986753 10.5805432,15.5748177 10.5805432,15.2986753 L10.5805432,13.6906614 L10.5805432,13.6906614 L9.41590848,13.6906614 C9.13976611,13.6906614 8.91590848,13.4668038 8.91590848,13.1906614 C8.91590848,13.0761533 8.9552125,12.9651147 9.02725083,12.8761058 L11.6022801,9.69445909 C11.7760043,9.4798094 12.0908436,9.44663278 12.3054933,9.62035705 C12.3329681,9.64259345 12.3580076,9.6676805 12.3801918,9.69519746 L14.9592856,12.8942658 C15.1326021,13.1092449 15.0988279,13.4240206 14.8838488,13.5973371 C14.7949569,13.6690019 14.684214,13.708083 14.5700316,13.708083 L13.4028428,13.708083 L13.4028428,13.708083 L13.4028428,15.2986753 C13.4028428,15.5748177 13.1789852,15.7986753 12.9028428,15.7986753 Z" id="形状" fill="#1990FF" fill-rule="nonzero"></path>
    </g>
</svg>