<?xml version="1.0" encoding="UTF-8"?>
<svg width="24px" height="23px" viewBox="0 0 24 23" version="1.1" xmlns="http://www.w3.org/2000/svg" xmlns:xlink="http://www.w3.org/1999/xlink">
    <title>图标/版本管理</title>
    <g id="页面-1" stroke="none" stroke-width="1" fill="none" fill-rule="evenodd">
        <g id="银河系统-首页B" transform="translate(-1059.000000, -25.000000)">
            <g id="编组-10" transform="translate(1052.000000, 17.000000)">
                <circle id="椭圆形" cx="19" cy="19" r="19"></circle>
                <g id="编组-32" transform="translate(6.000000, 6.000000)">
                    <rect id="矩形" x="0" y="0" width="26" height="26"></rect>
                    <g id="编组" transform="translate(1.000000, 2.000000)" fill="#90A5D5" fill-rule="nonzero">
                        <path d="M22.684,15.6828201 L23.0555247,15.8403298 C23.6302828,16.0833294 24,16.6209464 24,17.21372 C24,17.7608957 23.6849747,18.261074 23.1844464,18.5259125 L23.0555247,18.5871103 L13.2052277,22.7567565 C12.5030069,23.0540541 11.7075061,23.0788289 10.9897386,22.8310809 L10.7960396,22.7567565 L0.944475318,18.5871103 C0.369717218,18.3441107 0,17.8064936 0,17.21372 C0,16.6665444 0.315025322,16.1663661 0.815553567,15.9015275 L0.944475318,15.8403298 L1.315,15.6828201 L9.84444871,19.2921203 C11.2155878,19.8726165 12.7856795,19.8726165 14.1570443,19.2920248 L22.684,15.6828201 Z M22.684,10.4555473 L23.0555247,10.6130571 C23.6302828,10.8560567 24,11.3936737 24,11.9864473 C24,12.5336229 23.6849747,13.0338013 23.1844464,13.2986398 L23.0555247,13.3598376 L13.2052277,17.5294837 C12.5030069,17.8267814 11.7075061,17.8515562 10.9897386,17.6038081 L10.7960396,17.5294837 L0.944475318,13.3598376 C0.369717218,13.116838 0,12.5792209 0,11.9864473 C0,11.4392717 0.315025322,10.9390933 0.815553567,10.6742548 L0.944475318,10.6130571 L1.315,10.4555473 L9.84444871,14.0648476 C11.2155878,14.6453437 12.7856795,14.6453437 14.1570443,14.0647521 L22.684,10.4555473 Z M12.9924497,0.176521631 L13.2039604,0.263692807 L23.0555247,4.78387735 C23.6302828,5.04730571 24,5.63011973 24,6.27272727 C24,6.86178419 23.6893348,7.40059793 23.1948472,7.68921646 L23.0555247,7.76157719 L13.2052277,12.2817617 C12.5088104,12.6013894 11.7206485,12.6304464 11.0075503,12.3689329 L10.7960396,12.2817617 L0.944475318,7.76157719 C0.369717218,7.49814883 0,6.91533482 0,6.27272727 C0,5.68367035 0.310665162,5.14485661 0.805152777,4.85623808 L0.944475318,4.78387735 L10.7947723,0.263692807 C11.4911896,-0.0559348378 12.2793515,-0.0849918965 12.9924497,0.176521631 Z" id="形状结合"></path>
                    </g>
                </g>
            </g>
        </g>
    </g>
</svg>