<?xml version="1.0" encoding="UTF-8"?>
<svg width="20px" height="20px" viewBox="0 0 20 20" version="1.1" xmlns="http://www.w3.org/2000/svg" xmlns:xlink="http://www.w3.org/1999/xlink">
    <title>图标/小/权限申请</title>
    <g id="图标/小/权限申请" stroke="none" stroke-width="1" fill="none" fill-rule="evenodd">
        <rect id="形状结合" fill="#1767F9" fill-rule="nonzero" x="0" y="0" width="20" height="20" rx="3"></rect>
        <path d="M4,5.86491106 L4,10 L4,10 C4,12.9439095 5.2,14.8204847 8,16 L9.46334369,16.7316718 C9.80117667,16.9005883 10.1988233,16.9005883 10.5366563,16.7316718 L12,16 L12,16 C14.74,14.8204847 16,12.8829079 16,10 L16,5.86491106 C16,5.34839457 15.6694839,4.88982796 15.1794733,4.72649111 L10.3794733,3.12649111 C10.1331531,3.04438438 9.86684685,3.04438438 9.62052668,3.12649111 L4.82052668,4.72649111 C4.33051611,4.88982796 4,5.34839457 4,5.86491106 Z" id="形状" stroke="#FFFFFF" stroke-width="1.5" fill-rule="nonzero"></path>
        <path d="M9.97045455,5.50410061 C11.3097451,5.50410061 12.3954545,6.59088453 12.3954545,7.93150043 C12.3954545,9.09122257 11.5829743,10.060992 10.4967042,10.3015854 C10.4994829,10.314224 10.5,10.3285313 10.5,10.3429594 L10.4998836,11.5726694 C10.5029472,11.5726233 10.5060163,11.5726002 10.5090909,11.5726002 L11.0818182,11.5726002 C11.413189,11.5726002 11.6818182,11.8412293 11.6818182,12.1726002 L11.6818182,12.1863001 C11.6818182,12.5176709 11.413189,12.7863001 11.0818182,12.7863001 L10.5090909,12.7863001 L10.4994545,12.7851006 L10.5,13.4090909 C10.5,13.735441 10.235441,14 9.90909091,14 C9.58274083,14 9.31818182,13.735441 9.31818182,13.4090909 L9.31818182,10.3429594 L9.32328046,10.2714978 C8.298189,9.98805177 7.54545455,9.04776837 7.54545455,7.93150043 C7.54545455,6.59088453 8.63116403,5.50410061 9.97045455,5.50410061 Z M9.97045455,6.71780052 C9.30080929,6.71780052 8.75795455,7.26119248 8.75795455,7.93150043 C8.75795455,8.60180839 9.30080929,9.14520035 9.97045455,9.14520035 C10.6400998,9.14520035 11.1829545,8.60180839 11.1829545,7.93150043 C11.1829545,7.26119248 10.6400998,6.71780052 9.97045455,6.71780052 Z" id="形状结合" fill="#FFFFFF" fill-rule="nonzero"></path>
    </g>
</svg>